<?xml version="1.0" encoding="UTF-8"?>
<svg id="katman_1" data-name="katman 1" xmlns="http://www.w3.org/2000/svg" version="1.1" viewBox="0 0 841.89 595.28">
  <defs>
    <style>
      .cls-1 {
        fill: #1b72b9;
      }

      .cls-1, .cls-2 {
        stroke-width: 0px;
      }

      .cls-2 {
        fill: #63b32f;
      }
    </style>
  </defs>
  <path class="cls-1" d="M325.51,457.73v56.23h52.24v18.81h-75.71v-75.04h23.47Z"/>
  <path class="cls-2" d="M382.22,457.46h51.07c13.22,0,15.43.11,19.18.55,14.55,1.99,20.02,9.12,20.02,28.37,0,16.05-4.15,22.71-12.64,26.03-4.96,1.88-10.03,2.32-26.34,2.32h-28.21v18.04h-23.07v-75.32ZM433.29,495.38c10.14-.11,10.58-.11,12.45-1.11,2.2-1.22,2.98-3.21,2.98-8.52s-.88-7.3-3.64-8.41c-1.54-.66-1.76-.66-11.79-.77h-27.99v18.81h27.99Z"/>
  <path class="cls-2" d="M562.86,457.91v17.55h-60.17v11.61h56.31v16.27h-56.31v11.73h60.61v17.71h-83.71v-74.87h83.27Z"/>
  <path class="cls-2" d="M655.3,457.91v17.55h-32.73v57.32h-23.47v-57.32h-32.73v-17.55h88.93Z"/>
  <path class="cls-1" d="M276.96,492.08l-8.14-15.2-10.26-19.15h-31.31l-10.21,18.84-8.64,15.94-21.82,40.27h25.57l6.63-12.86h47.9l6.63,12.86h25.46l-21.81-40.7ZM258.86,506.91c-7.18,0-13.39-3.79-16.3-9.28-2.91,5.49-9.12,9.28-16.31,9.28-.51,0-1.01-.02-1.51-.06l13.21-23.2,2.11-3.62,2.29-3.92.21-.35.21.35,2.29,3.92,12.96,22.21,2.61,4.59c-.58.05-1.17.08-1.76.08Z"/>
  <path class="cls-1" d="M569.79,362.96c-36.68-2.64-67.01-20.58-78.22-44.72-11.21,24.14-41.54,42.08-78.22,44.72l63.82-105.35,14.4-23.77,14.4,23.77,63.82,105.35Z"/>
  <path class="cls-2" d="M455.84,165.06l34.85-57.53,34.85,57.53,77.38,127.74c7.05-20.1,10.89-41.71,10.89-64.21,0-107.09-86.81-193.91-193.91-193.91s-193.91,86.81-193.91,193.91c0,69.53,36.59,130.51,91.57,164.73l138.28-228.26Z"/>
</svg>