<?xml version="1.0" encoding="UTF-8" standalone="no"?>
<!-- Created with Inkscape (http://www.inkscape.org/) -->
<svg
   xmlns:svg="http://www.w3.org/2000/svg"
   xmlns="http://www.w3.org/2000/svg"
   version="1.0"
   width="512"
   height="512"
   viewBox="0 0 512 512"
   id="Layer_1"
   xml:space="preserve"><defs
   id="defs120" />
<g
   id="g3">
	<path
   d="M 278.923,178.915 C 270.478,158.952 260.095,143.717 256.003,137.553 C 251.888,143.718 241.524,158.952 233.082,178.915 C 241.357,187.81 249.504,198.288 256.003,210.174 C 262.484,198.288 270.666,187.81 278.923,178.915"
   style="fill:#00a330;fill-rule:evenodd"
   id="path5" />
	<path
   d="M 233.083,438.926 C 241.524,458.874 251.889,474.119 256.004,480.277 C 260.096,474.12 270.479,458.89 278.924,438.926 C 270.666,430.007 262.485,419.531 256.004,407.647 C 249.504,419.531 241.358,430.007 233.083,438.926"
   style="fill:#00a330;fill-rule:evenodd"
   id="path7" />
	<path
   d="M 233.083,178.915 C 218.351,163.025 203.386,152.265 197.433,147.89 C 195.667,155.074 191.137,172.948 190.046,194.603 C 200.828,200.136 212.099,207.197 222.254,216.123 C 224.294,202.737 228.377,190.089 233.083,178.915"
   style="fill:#00a330;fill-rule:evenodd"
   id="path9" />
	<path
   d="M 278.923,438.926 C 293.635,454.803 308.626,465.549 314.585,469.944 C 316.332,462.745 320.874,444.873 321.964,423.25 C 311.183,417.712 299.91,410.629 289.748,401.7 C 287.716,415.091 283.62,427.734 278.923,438.926"
   style="fill:#00a330;fill-rule:evenodd"
   id="path11" />
	<path
   d="M 190.046,194.603 C 170.774,184.727 153.029,179.726 145.933,177.635 C 146.727,185.01 148.569,203.357 154.945,224.072 C 166.969,225.552 179.963,228.346 192.574,233.279 C 189.899,220.005 189.424,206.707 190.046,194.603"
   style="fill:#00a330;fill-rule:evenodd"
   id="path13" />
	<path
   d="M 321.964,423.249 C 341.228,433.115 358.967,438.107 366.074,440.182 C 365.292,432.824 363.428,414.478 357.053,393.766 C 345.033,392.264 332.037,389.473 319.419,384.533 C 322.099,397.84 322.578,411.119 321.964,423.249"
   style="fill:#00a330;fill-rule:evenodd"
   id="path15" />
	<path
   d="M 170.548,259.556 C 163.52,247.981 158.517,235.648 154.944,224.073 C 133.447,221.374 115.086,222.753 107.686,223.234 C 110.957,229.87 118.965,246.473 132.012,263.77 C 143.845,261.057 157.019,259.236 170.548,259.556"
   style="fill:#00a330;fill-rule:evenodd"
   id="path17" />
	<path
   d="M 341.441,358.282 C 348.496,369.852 353.507,382.192 357.053,393.765 C 378.557,396.453 396.92,395.07 404.32,394.619 C 401.037,387.947 393.059,371.34 379.982,354.042 C 368.161,356.761 355.004,358.595 341.441,358.282"
   style="fill:#00a330;fill-rule:evenodd"
   id="path19" />
	<path
   d="M 132.013,263.77 C 110.912,268.592 94.124,276.168 87.345,279.152 C 92.698,284.261 105.89,297.141 124.078,308.915 C 134.241,302.345 145.993,296.093 158.823,291.769 C 148.252,283.29 139.349,273.428 132.013,263.77"
   style="fill:#00a330;fill-rule:evenodd"
   id="path21" />
	<path
   d="M 387.912,308.914 C 377.749,315.502 365.999,321.734 353.175,326.063 C 363.737,334.525 372.668,344.383 379.983,354.042 C 401.103,349.223 417.9,341.654 424.659,338.672 C 419.306,333.565 406.113,320.664 387.912,308.914"
   style="fill:#00a330;fill-rule:evenodd"
   id="path23" />
	<path
   d="M 158.823,326.063 C 145.992,321.734 134.24,315.501 124.078,308.914 C 105.89,320.664 92.698,333.565 87.345,338.673 C 94.124,341.655 110.912,349.224 132.013,354.043 C 139.349,344.391 148.252,334.525 158.823,326.063"
   style="fill:#00a330;fill-rule:evenodd"
   id="path25" />
	<path
   d="M 353.174,291.769 C 365.998,296.092 377.748,302.344 387.911,308.915 C 406.112,297.142 419.306,284.262 424.657,279.152 C 417.898,276.169 401.101,268.592 379.981,263.77 C 372.667,273.428 363.736,283.29 353.174,291.769"
   style="fill:#00a330;fill-rule:evenodd"
   id="path27" />
	<path
   d="M 132.013,354.043 C 118.966,371.341 110.958,387.948 107.687,394.62 C 115.087,395.07 133.448,396.453 154.945,393.766 C 158.518,382.193 163.521,369.853 170.549,358.283 C 157.019,358.595 143.845,356.761 132.013,354.043"
   style="fill:#00a330;fill-rule:evenodd"
   id="path29" />
	<path
   d="M 379.982,263.77 C 393.059,246.473 401.037,229.87 404.32,223.207 C 396.921,222.753 378.557,221.374 357.053,224.073 C 353.507,235.648 348.495,247.982 341.441,259.556 C 355.004,259.236 368.161,261.057 379.982,263.77"
   style="fill:#00a330;fill-rule:evenodd"
   id="path31" />
	<path
   d="M 192.574,384.532 C 179.962,389.472 166.969,392.257 154.945,393.765 C 148.57,414.477 146.727,432.823 145.933,440.181 C 153.029,438.107 170.774,433.115 190.046,423.248 C 189.424,411.119 189.899,397.84 192.574,384.532"
   style="fill:#00a330;fill-rule:evenodd"
   id="path33" />
	<path
   d="M 319.419,233.279 C 332.037,228.34 345.033,225.552 357.053,224.072 C 363.428,203.357 365.292,185.01 366.074,177.635 C 358.967,179.704 341.227,184.706 321.964,194.584 C 322.578,206.707 322.099,219.973 319.419,233.279"
   style="fill:#00a330;fill-rule:evenodd"
   id="path35" />
	<path
   d="M 190.046,423.249 C 191.137,444.872 195.667,462.744 197.433,469.943 C 203.386,465.548 218.35,454.802 233.083,438.925 C 228.377,427.734 224.295,415.09 222.254,401.698 C 212.099,410.628 200.828,417.711 190.046,423.249"
   style="fill:#00a330;fill-rule:evenodd"
   id="path37" />
	<path
   d="M 321.964,194.584 C 320.874,172.947 316.332,155.073 314.585,147.89 C 308.626,152.265 293.635,163.026 278.923,178.915 C 283.619,190.071 287.716,202.737 289.748,216.123 C 299.911,207.197 311.183,200.115 321.964,194.584"
   style="fill:#00a330;fill-rule:evenodd"
   id="path39" />
	<path
   d="M 313.717,31.725 L 302.502,31.725 L 302.502,103.815 L 302.257,114.556 L 313.103,114.556 L 313.348,105.485 C 314.553,107.277 315.862,109.308 319.209,111.573 C 324.34,115.036 329.698,115.398 332.565,115.398 C 340.794,115.398 348.786,111.933 353.56,105.127 C 356.556,101.188 359.286,94.856 359.286,83.275 C 359.286,70.15 355.232,64.185 352.248,60.719 C 346.77,54.51 339.248,53.076 333.279,53.076 C 319.677,53.076 315.257,60.603 313.717,63.346 L 313.717,31.725 M 347.478,84 C 347.478,93.785 344.017,107.278 330.174,107.278 C 313.479,107.278 313.479,88.53 313.479,84.594 C 313.479,80.773 313.479,60.72 330.659,60.72 C 346.287,60.721 347.478,78.028 347.478,84 z "
   style="fill:#00a330"
   id="path41" />
	<path
   d="M 367.886,137.592 L 378.98,137.592 L 378.98,107.872 C 382.199,113.125 388.629,116.825 397.338,116.825 C 411.668,116.825 424.657,107.043 424.657,84.717 C 424.657,62.509 412.383,53.68 399.498,53.68 C 394.616,53.68 384.693,55.113 379.096,64.536 L 378.857,54.634 L 367.52,54.634 C 367.758,60.361 367.886,61.798 367.886,64.421 L 367.886,137.592 M 378.617,86.388 C 378.617,81.01 378.617,62.034 396.508,62.034 C 409.744,62.034 412.976,73.257 412.976,84 C 412.976,88.298 412.384,96.896 408.083,102.739 C 404.267,107.994 398.297,108.592 395.445,108.592 C 379.699,108.591 378.617,93.667 378.617,86.388 z "
   style="fill:#00a330"
   id="path43" />
	<path
   d="M 244.259,242.305 C 246.425,230.715 250.641,219.973 256.004,210.174 C 249.505,198.288 241.358,187.81 233.083,178.915 C 228.377,190.089 224.295,202.737 222.254,216.123 C 230.643,223.51 238.287,232.162 244.259,242.305"
   style="fill:#3bbd00;fill-rule:evenodd"
   id="path45" />
	<path
   d="M 267.75,375.528 C 265.569,387.11 261.374,397.847 256.003,407.646 C 262.483,419.531 270.665,430.006 278.923,438.925 C 283.619,427.734 287.716,415.09 289.748,401.698 C 281.372,394.315 273.715,385.66 267.75,375.528"
   style="fill:#3bbd00;fill-rule:evenodd"
   id="path47" />
	<path
   d="M 192.574,233.279 C 202.968,237.332 213.102,242.852 222.192,250.326 C 220.284,238.712 220.559,227.176 222.254,216.123 C 212.099,207.197 200.828,200.136 190.046,194.603 C 189.424,206.707 189.899,220.005 192.574,233.279"
   style="fill:#3bbd00;fill-rule:evenodd"
   id="path49" />
	<path
   d="M 319.419,384.532 C 309.029,380.497 298.904,374.965 289.815,367.507 C 291.739,379.114 291.431,390.636 289.748,401.699 C 299.91,410.628 311.183,417.711 321.964,423.249 C 322.578,411.119 322.099,397.84 319.419,384.532"
   style="fill:#3bbd00;fill-rule:evenodd"
   id="path51" />
	<path
   d="M 204.225,265.431 C 198.43,255.173 194.778,244.231 192.575,233.279 C 179.963,228.346 166.97,225.552 154.946,224.072 C 158.519,235.647 163.522,247.981 170.55,259.555 C 181.69,259.797 193.124,261.53 204.225,265.431"
   style="fill:#3bbd00;fill-rule:evenodd"
   id="path53" />
	<path
   d="M 307.787,352.39 C 313.558,362.643 317.236,373.588 319.42,384.533 C 332.038,389.473 345.034,392.264 357.054,393.766 C 353.508,382.193 348.496,369.853 341.442,358.283 C 330.295,358.027 318.887,356.307 307.787,352.39"
   style="fill:#3bbd00;fill-rule:evenodd"
   id="path55" />
	<path
   d="M 158.823,291.769 C 169.394,288.184 180.708,285.899 192.484,285.778 C 183.537,278.108 176.332,269.09 170.548,259.556 C 157.018,259.237 143.844,261.057 132.013,263.77 C 139.349,273.428 148.252,283.29 158.823,291.769"
   style="fill:#3bbd00;fill-rule:evenodd"
   id="path57" />
	<path
   d="M 353.174,326.063 C 342.591,329.626 331.299,331.926 319.524,332.042 C 328.471,339.697 335.665,348.735 341.441,358.281 C 355.004,358.593 368.161,356.76 379.982,354.042 C 372.667,344.384 363.736,334.525 353.174,326.063"
   style="fill:#3bbd00;fill-rule:evenodd"
   id="path59" />
	<path
   d="M 188.389,308.914 C 177.382,304.78 167.542,298.736 158.824,291.768 C 145.993,296.091 134.241,302.343 124.079,308.914 C 134.242,315.502 145.994,321.734 158.824,326.063 C 167.542,319.071 177.381,313.045 188.389,308.914"
   style="fill:#3bbd00;fill-rule:evenodd"
   id="path61" />
	<path
   d="M 323.603,308.914 C 334.631,313.045 344.465,319.071 353.174,326.063 C 365.998,321.734 377.748,315.501 387.911,308.914 C 377.748,302.344 365.998,296.092 353.174,291.768 C 344.465,298.736 334.631,304.78 323.603,308.914"
   style="fill:#3bbd00;fill-rule:evenodd"
   id="path63" />
	<path
   d="M 170.548,358.282 C 176.332,348.736 183.537,339.698 192.484,332.043 C 180.709,331.927 169.394,329.639 158.823,326.064 C 148.252,334.526 139.348,344.391 132.013,354.043 C 143.845,356.761 157.019,358.595 170.548,358.282"
   style="fill:#3bbd00;fill-rule:evenodd"
   id="path65" />
	<path
   d="M 341.441,259.556 C 335.665,269.089 328.471,278.108 319.524,285.778 C 331.299,285.899 342.591,288.184 353.174,291.769 C 363.736,283.29 372.667,273.428 379.982,263.77 C 368.161,261.057 355.004,259.236 341.441,259.556"
   style="fill:#3bbd00;fill-rule:evenodd"
   id="path67" />
	<path
   d="M 204.225,352.39 C 193.124,356.307 181.691,358.028 170.549,358.283 C 163.521,369.853 158.518,382.193 154.945,393.766 C 166.969,392.257 179.963,389.473 192.574,384.533 C 194.778,373.588 198.429,362.643 204.225,352.39"
   style="fill:#3bbd00;fill-rule:evenodd"
   id="path69" />
	<path
   d="M 307.787,265.431 C 318.888,261.531 330.296,259.797 341.441,259.556 C 348.496,247.981 353.507,235.648 357.053,224.073 C 345.033,225.553 332.037,228.34 319.419,233.28 C 317.236,244.231 313.558,255.172 307.787,265.431"
   style="fill:#3bbd00;fill-rule:evenodd"
   id="path71" />
	<path
   d="M 244.259,375.528 C 238.287,385.66 230.643,394.315 222.254,401.699 C 224.295,415.091 228.377,427.734 233.083,438.926 C 241.358,430.007 249.505,419.531 256.004,407.647 C 250.641,397.848 246.424,387.11 244.259,375.528"
   style="fill:#3bbd00;fill-rule:evenodd"
   id="path73" />
	<path
   d="M 222.192,367.507 C 213.102,374.965 202.968,380.497 192.574,384.532 C 189.899,397.84 189.424,411.119 190.046,423.249 C 200.828,417.711 212.099,410.628 222.254,401.699 C 220.559,390.636 220.284,379.107 222.192,367.507"
   style="fill:#3bbd00;fill-rule:evenodd"
   id="path75" />
	<path
   d="M 267.75,242.305 C 273.715,232.162 281.371,223.497 289.748,216.123 C 287.716,202.737 283.619,190.071 278.923,178.915 C 270.665,187.81 262.484,198.288 256.003,210.174 C 261.375,219.973 265.57,230.714 267.75,242.305"
   style="fill:#3bbd00;fill-rule:evenodd"
   id="path77" />
	<path
   d="M 289.816,250.326 C 298.905,242.851 309.03,237.331 319.42,233.279 C 322.1,219.973 322.578,206.707 321.965,194.584 C 311.184,200.115 299.911,207.197 289.749,216.123 C 291.432,227.176 291.74,238.712 289.816,250.326"
   style="fill:#3bbd00;fill-rule:evenodd"
   id="path79" />
	<path
   d="M 244.307,276.793 C 242.013,264.627 242.251,253.102 244.259,242.305 C 238.287,232.162 230.643,223.51 222.254,216.123 C 220.559,227.176 220.284,238.712 222.192,250.326 C 230.697,257.315 238.274,265.993 244.307,276.793"
   style="fill:#ffe400;fill-rule:evenodd"
   id="path81" />
	<path
   d="M 267.69,341.045 C 269.99,353.178 269.769,364.713 267.751,375.528 C 273.716,385.66 281.372,394.315 289.749,401.699 C 291.433,390.636 291.74,379.114 289.816,367.507 C 281.323,360.503 273.733,351.827 267.69,341.045"
   style="fill:#ffe400;fill-rule:evenodd"
   id="path83" />
	<path
   d="M 222.192,250.326 C 213.102,242.851 202.968,237.331 192.574,233.279 C 194.778,244.231 198.429,255.173 204.224,265.431 C 214.588,269.07 224.671,274.655 234.032,282.702 C 227.736,272.082 223.995,261.185 222.192,250.326"
   style="fill:#ffe400;fill-rule:evenodd"
   id="path85" />
	<path
   d="M 289.816,367.507 C 298.905,374.965 309.03,380.497 319.42,384.532 C 317.236,373.588 313.559,362.642 307.787,352.389 C 297.429,348.736 287.333,343.156 277.949,335.115 C 284.269,345.74 288.027,356.641 289.816,367.507"
   style="fill:#ffe400;fill-rule:evenodd"
   id="path87" />
	<path
   d="M 226.416,291.811 C 216.841,283.987 209.588,275.011 204.225,265.431 C 193.124,261.531 181.691,259.797 170.549,259.556 C 176.333,269.089 183.538,278.108 192.485,285.778 C 203.45,285.647 214.845,287.442 226.416,291.811"
   style="fill:#ffe400;fill-rule:evenodd"
   id="path89" />
	<path
   d="M 285.591,326.005 C 295.149,333.841 302.408,342.799 307.786,352.39 C 318.887,356.307 330.295,358.028 341.44,358.283 C 335.664,348.737 328.47,339.699 319.523,332.044 C 308.541,332.172 297.169,330.39 285.591,326.005"
   style="fill:#ffe400;fill-rule:evenodd"
   id="path91" />
	<path
   d="M 222.351,302.98 C 210.673,298.879 200.815,292.942 192.484,285.777 C 180.709,285.898 169.394,288.183 158.823,291.768 C 167.542,298.736 177.381,304.78 188.388,308.914 C 198.693,305.041 209.998,302.819 222.351,302.98"
   style="fill:#ffe400;fill-rule:evenodd"
   id="path93" />
	<path
   d="M 289.658,314.823 C 301.317,318.936 311.183,324.889 319.524,332.043 C 331.299,331.927 342.591,329.627 353.174,326.064 C 344.465,319.072 334.631,313.045 323.603,308.915 C 313.311,312.78 302.011,314.999 289.658,314.823"
   style="fill:#ffe400;fill-rule:evenodd"
   id="path95" />
	<path
   d="M 188.389,308.914 C 177.382,313.045 167.542,319.071 158.824,326.063 C 169.395,329.638 180.709,331.926 192.485,332.042 C 200.816,324.889 210.674,318.936 222.352,314.846 C 209.998,314.999 198.693,312.78 188.389,308.914"
   style="fill:#ffe400;fill-rule:evenodd"
   id="path97" />
	<path
   d="M 323.603,308.914 C 334.631,304.78 344.465,298.736 353.174,291.768 C 342.591,288.183 331.299,285.898 319.524,285.777 C 311.183,292.942 301.317,298.88 289.658,302.98 C 302.011,302.819 313.311,305.041 323.603,308.914"
   style="fill:#ffe400;fill-rule:evenodd"
   id="path99" />
	<path
   d="M 226.416,326.005 C 214.846,330.39 203.451,332.172 192.484,332.043 C 183.537,339.698 176.332,348.736 170.548,358.282 C 181.69,358.027 193.124,356.306 204.224,352.389 C 209.588,342.799 216.841,333.841 226.416,326.005"
   style="fill:#ffe400;fill-rule:evenodd"
   id="path101" />
	<path
   d="M 285.583,291.811 C 297.17,287.443 308.541,285.648 319.524,285.778 C 328.471,278.108 335.665,269.09 341.441,259.556 C 330.295,259.797 318.887,261.531 307.787,265.431 C 302.409,275.011 295.149,283.986 285.583,291.811"
   style="fill:#ffe400;fill-rule:evenodd"
   id="path103" />
	<path
   d="M 244.259,375.528 C 246.425,387.11 250.641,397.847 256.004,407.646 C 261.375,397.847 265.57,387.11 267.751,375.528 C 262.149,366.041 258.021,355.306 256.004,343.113 C 253.999,355.307 249.867,366.041 244.259,375.528"
   style="fill:#ffe400;fill-rule:evenodd"
   id="path105" />
	<path
   d="M 244.307,341.045 C 238.274,351.827 230.697,360.503 222.192,367.507 C 220.284,379.108 220.559,390.636 222.254,401.699 C 230.643,394.315 238.287,385.66 244.259,375.528 C 242.251,364.713 242.013,353.178 244.307,341.045"
   style="fill:#ffe400;fill-rule:evenodd"
   id="path107" />
	<path
   d="M 204.225,352.39 C 198.43,362.643 194.778,373.588 192.575,384.533 C 202.969,380.498 213.103,374.966 222.193,367.508 C 223.996,356.642 227.737,345.741 234.04,335.116 C 224.671,343.156 214.588,348.736 204.225,352.39"
   style="fill:#ffe400;fill-rule:evenodd"
   id="path109" />
	<path
   d="M 267.75,242.305 C 265.569,230.715 261.374,219.973 256.003,210.174 C 250.64,219.973 246.424,230.715 244.258,242.305 C 249.866,251.753 253.998,262.516 256.003,274.719 C 258.02,262.516 262.149,251.753 267.75,242.305"
   style="fill:#ffe400;fill-rule:evenodd"
   id="path111" />
	<path
   d="M 267.69,276.793 C 273.733,265.993 281.323,257.315 289.816,250.326 C 291.74,238.712 291.432,227.176 289.749,216.123 C 281.372,223.497 273.716,232.162 267.751,242.305 C 269.769,253.102 269.99,264.627 267.69,276.793"
   style="fill:#ffe400;fill-rule:evenodd"
   id="path113" />
	<path
   d="M 307.787,265.431 C 313.558,255.173 317.236,244.231 319.42,233.279 C 309.03,237.332 298.905,242.852 289.816,250.326 C 288.027,261.184 284.269,272.082 277.949,282.711 C 287.333,274.654 297.428,269.089 307.787,265.431"
   style="fill:#ffe400;fill-rule:evenodd"
   id="path115" />
	<path
   d="M 244.307,276.793 C 238.274,265.993 230.697,257.315 222.192,250.326 C 223.995,261.184 227.736,272.082 234.032,282.701 C 224.671,274.654 214.588,269.069 204.224,265.43 C 209.587,275.01 216.84,283.986 226.415,291.81 C 214.845,287.442 203.45,285.647 192.483,285.777 C 200.814,292.942 210.672,298.88 222.35,302.98 C 209.997,302.819 198.692,305.041 188.388,308.914 C 198.693,312.78 209.997,314.999 222.35,314.847 C 210.672,318.937 200.814,324.89 192.483,332.043 C 203.449,332.172 214.844,330.39 226.415,326.005 C 216.84,333.841 209.587,342.799 204.224,352.39 C 214.588,348.737 224.671,343.157 234.038,335.116 C 227.735,345.741 223.995,356.641 222.191,367.508 C 230.696,360.504 238.273,351.828 244.306,341.046 C 242.012,353.179 242.25,364.714 244.258,375.529 C 249.866,366.042 253.998,355.307 256.003,343.114 C 258.02,355.307 262.149,366.042 267.75,375.529 C 269.769,364.714 269.989,353.178 267.689,341.046 C 273.732,351.828 281.322,360.504 289.815,367.508 C 288.026,356.642 284.268,345.741 277.948,335.116 C 287.332,343.157 297.427,348.737 307.786,352.39 C 302.408,342.799 295.148,333.841 285.591,326.005 C 297.169,330.39 308.54,332.172 319.524,332.043 C 311.183,324.89 301.317,318.937 289.658,314.823 C 302.012,314.999 313.311,312.78 323.603,308.914 C 313.311,305.041 302.011,302.819 289.658,302.98 C 301.317,298.879 311.183,292.942 319.524,285.777 C 308.541,285.647 297.17,287.442 285.583,291.81 C 295.149,283.986 302.409,275.01 307.787,265.43 C 297.429,269.088 287.333,274.654 277.949,282.71 C 284.269,272.081 288.027,261.184 289.816,250.325 C 281.323,257.314 273.733,265.992 267.69,276.792 C 269.99,264.626 269.769,253.101 267.751,242.304 C 262.149,251.752 258.021,262.515 256.004,274.718 C 253.999,262.515 249.867,251.752 244.259,242.304 C 242.251,253.102 242.013,264.627 244.307,276.793"
   style="fill:white;fill-rule:evenodd"
   id="path117" />
</g>
</svg>