<?xml version="1.0" encoding="utf-8"?>
<!-- Generator: Adobe Illustrator 16.0.0, SVG Export Plug-In . SVG Version: 6.00 Build 0)  -->
<!DOCTYPE svg PUBLIC "-//W3C//DTD SVG 1.1//EN" "http://www.w3.org/Graphics/SVG/1.1/DTD/svg11.dtd">
<svg version="1.1" id="Layer_1" xmlns="http://www.w3.org/2000/svg" xmlns:xlink="http://www.w3.org/1999/xlink" x="0px" y="0px"
	 width="800px" height="228.5px" viewBox="-364 -188.66 800 228.5" enable-background="new -364 -188.66 800 228.5"
	 xml:space="preserve">
<g>
	<path fill="#007CC3" d="M425.33-125.193h-59.053l-8.789,29.731c-4.784,15.577-7.967,26.908-7.967,37.521
		c0,17.708,14.354,25.496,31.129,25.496c16.756,0,28.725-2.833,39.094-5.666l-10.39,36.819c-12.751,2.833-27.946,4.956-41.476,4.956
		c-43.9,0-70.223-24.066-70.223-57.351c0-11.323,3.16-22.655,7.965-40.354l27.946-93.459h51.066l-7.188,24.777H436.5L425.33-125.193
		L425.33-125.193z M233.817-130.149c-27.146,0-49.485,20.532-57.473,40.354c4.005,0.71,7.987,0.71,11.169,0.71
		c38.316,0,66.241-7.789,66.241-26.909C253.755-126.615,242.585-130.149,233.817-130.149L233.817-130.149L233.817-130.149z
		 M259.341-67.843c-23.942,9.209-49.465,11.322-87.78,11.322c0,16.287,11.17,24.786,37.515,24.786
		c22.362,0,44.68-4.245,62.235-9.209L260.142-4.825c-19.158,4.955-39.897,8.489-61.435,8.489c-44.702,0-78.212-16.998-78.212-60.184
		c0-57.351,47.884-108.325,116.505-108.325c29.527,0,62.235,14.165,62.235,46.019C299.235-97.584,284.082-78.464,259.341-67.843
		L259.341-67.843L259.341-67.843z M32.716-126.615c-32.719,0-51.866,38.24-51.866,64.438c0,16.278,13.551,27.61,32.708,27.61
		c32.72,0,49.486-38.23,49.486-64.429C63.044-115.283,51.873-126.615,32.716-126.615L32.716-126.615L32.716-126.615z M13.558,3.664
		c-24.743,0-41.498-7.087-50.264-14.875L-51.08,35.518h-51.066l37.503-125.333c15.164-49.562,51.077-75.05,102.142-75.05
		c43.1,0,77.41,22.655,77.41,64.429C114.91-49.432,72.612,3.664,13.558,3.664L13.558,3.664L13.558,3.664z M-156.415-125.193
		c-32.714,0-54.264,35.398-54.264,63.016c0,15.577,9.579,26.198,28.73,26.198c32.72,0,53.458-35.408,53.458-63.017
		C-128.49-114.572-137.257-125.193-156.415-125.193L-156.415-125.193L-156.415-125.193z M-188.334,1.551h-150.025l11.175-37.52
		h67.03c-2.393-7.087-3.193-15.577-3.193-26.198H-361.5l11.17-36.829h98.153c3.994-9.209,11.175-18.409,19.153-26.197h-67.827
		l11.169-37.53h138.851c45.48,0,75.007,21.953,75.007,60.894C-75.823-56.52-116.519,1.551-188.334,1.551L-188.334,1.551z"/>
</g>
</svg>
