<?xml version="1.0" encoding="UTF-8"?>
<svg xmlns="http://www.w3.org/2000/svg" xmlns:xlink="http://www.w3.org/1999/xlink" width="114.3pt" height="76.4pt" viewBox="0 0 114.3 76.4" version="1.1">
<defs>
<clipPath id="clip1">
  <path d="M 0 0 L 114.300781 0 L 114.300781 76.398438 L 0 76.398438 Z M 0 0 "/>
</clipPath>
</defs>
<g id="surface1">
<g clip-path="url(#clip1)" clip-rule="nonzero">
<path style="fill-rule:evenodd;fill:rgb(10.594177%,9.812927%,9.423828%);fill-opacity:1;stroke-width:2;stroke-linecap:butt;stroke-linejoin:miter;stroke:rgb(0%,0%,0%);stroke-opacity:1;stroke-miterlimit:4;" d="M 1.484375 1.148438 L 1142.382813 1.148438 L 1142.382813 763.648438 L 1.484375 763.648438 Z M 1.484375 1.148438 " transform="matrix(0.1,0,0,-0.1,0,76.4)"/>
</g>
<path style=" stroke:none;fill-rule:evenodd;fill:rgb(100%,100%,100%);fill-opacity:1;" d="M 55.933594 63.777344 L 50.59375 63.777344 L 50.59375 51.652344 C 50.59375 50.75 49.859375 50.015625 48.957031 50.015625 L 44.71875 50.015625 L 44.71875 63.777344 L 33.898438 63.777344 C 30.539063 63.777344 27.789063 61.03125 27.789063 57.671875 L 27.789063 45.265625 L 33.128906 45.265625 L 33.128906 57.390625 C 33.128906 58.292969 33.863281 59.027344 34.765625 59.027344 L 39.003906 59.027344 L 39.003906 45.265625 L 49.824219 45.265625 C 53.183594 45.265625 55.933594 48.011719 55.933594 51.371094 Z M 25.132813 45.4375 L 13.402344 45.4375 C 10.605469 45.4375 8.316406 47.726563 8.316406 50.519531 L 8.316406 51.816406 C 8.316406 54.613281 10.605469 56.898438 13.402344 56.898438 L 19.097656 56.898438 C 19.78125 56.898438 20.339844 57.457031 20.339844 58.140625 C 20.339844 58.824219 19.78125 59.386719 19.097656 59.386719 L 8.511719 59.386719 L 8.511719 63.730469 L 20.984375 63.730469 C 23.777344 63.730469 26.066406 61.445313 26.066406 58.648438 L 26.066406 57.351563 C 26.066406 54.558594 23.78125 52.269531 20.984375 52.269531 L 15.285156 52.269531 C 14.601563 52.269531 14.039063 51.710938 14.039063 51.027344 C 14.039063 50.34375 14.601563 49.785156 15.285156 49.785156 L 25.132813 49.785156 Z M 64.917969 63.765625 L 68.90625 63.765625 C 73.757813 63.765625 77.726563 59.796875 77.726563 54.945313 L 77.726563 54.203125 C 77.726563 49.351563 73.757813 45.382813 68.90625 45.382813 L 59.382813 45.382813 L 59.382813 70.382813 L 64.917969 70.382813 Z M 64.917969 49.976563 L 68.046875 49.976563 C 70.085938 49.976563 71.746094 51.640625 71.746094 53.675781 L 71.746094 55.472656 C 71.746094 57.507813 70.085938 59.167969 68.046875 59.167969 L 64.917969 59.167969 Z M 94.886719 63.765625 L 86.269531 63.765625 C 82.023438 63.765625 78.542969 60.289063 78.542969 56.042969 L 78.542969 53.195313 C 78.542969 48.898438 82.0625 45.382813 86.359375 45.382813 L 98.355469 45.382813 L 98.355469 38.964844 L 104.003906 38.964844 L 104.003906 45.382813 L 108.824219 45.382813 L 108.824219 49.945313 L 104.003906 49.945313 L 104.003906 57.015625 C 104.003906 58.316406 105.066406 59.382813 106.367188 59.382813 L 108.851563 59.382813 L 108.851563 63.90625 L 104.070313 63.90625 C 100.925781 63.90625 98.355469 61.335938 98.355469 58.191406 L 98.355469 49.855469 L 94.886719 49.855469 L 94.886719 49.847656 L 87.066406 49.847656 C 85.746094 49.847656 84.660156 50.878906 84.566406 52.171875 L 94.886719 52.171875 L 94.886719 56.976563 L 84.566406 56.976563 C 84.632813 58.265625 85.710938 59.300781 87.019531 59.300781 L 94.886719 59.300781 Z M 94.886719 63.765625 "/>
<path style=" stroke:none;fill-rule:evenodd;fill:rgb(94.53125%,60.742188%,6.665039%);fill-opacity:1;" d="M 68.042969 70.382813 L 108.773438 70.382813 L 108.773438 67.621094 L 68.042969 67.621094 Z M 68.042969 70.382813 "/>
<path style=" stroke:none;fill-rule:evenodd;fill:rgb(94.53125%,60.742188%,6.665039%);fill-opacity:1;" d="M 8.523438 70.382813 L 55.679688 70.382813 L 55.679688 67.621094 L 8.523438 67.621094 Z M 8.523438 70.382813 "/>
<path style=" stroke:none;fill-rule:evenodd;fill:rgb(94.53125%,60.742188%,6.665039%);fill-opacity:1;" d="M 55.335938 41.234375 C 41.703125 41.234375 28.070313 41.234375 14.441406 41.234375 C 17.308594 38.402344 23.996094 39.972656 27.597656 38.09375 C 31.632813 35.988281 28.480469 34.148438 25.792969 32.832031 C 24.464844 32.183594 22.257813 31.382813 21.894531 29.707031 C 21.265625 26.804688 26.9375 28.15625 28.121094 28.390625 C 31.828125 29.121094 34.542969 28.414063 32.816406 25.328125 C 31.96875 23.683594 30.027344 21.894531 28.722656 20.636719 C 25.46875 17.507813 24.753906 15.546875 25.527344 14.847656 C 27.894531 12.699219 36.160156 20.242188 38.449219 20.894531 C 45.097656 22.777344 37.667969 11.484375 41.738281 10.640625 C 43.996094 10.171875 45.621094 14.140625 46.96875 15.582031 C 47.636719 16.296875 48.28125 16.820313 48.914063 17.054688 C 49.746094 17.359375 50.589844 17.164063 51.246094 16.398438 C 53.15625 14.183594 52.492188 9.816406 53.054688 7.050781 C 53.511719 4.820313 54.214844 3.441406 55.335938 3.546875 C 56.460938 3.441406 57.160156 4.820313 57.617188 7.050781 C 58.179688 9.816406 57.515625 14.183594 59.417969 16.398438 C 60.082031 17.164063 60.921875 17.359375 61.753906 17.054688 C 62.390625 16.820313 63.035156 16.296875 63.707031 15.582031 C 65.046875 14.140625 66.667969 10.171875 68.933594 10.640625 C 73.003906 11.484375 65.574219 22.777344 72.222656 20.894531 C 74.511719 20.242188 82.777344 12.699219 85.148438 14.847656 C 85.914063 15.546875 85.207031 17.507813 81.949219 20.636719 C 80.644531 21.894531 78.707031 23.683594 77.859375 25.328125 C 76.121094 28.414063 78.847656 29.121094 82.546875 28.390625 C 83.734375 28.15625 89.40625 26.804688 88.777344 29.707031 C 88.414063 31.382813 86.207031 32.183594 84.871094 32.832031 C 82.191406 34.148438 79.039063 35.988281 83.074219 38.09375 C 86.671875 39.972656 93.363281 38.402344 96.234375 41.234375 C 82.601563 41.234375 68.96875 41.234375 55.335938 41.234375 Z M 55.335938 41.234375 "/>
<path style=" stroke:none;fill-rule:evenodd;fill:rgb(100%,89.0625%,0%);fill-opacity:1;" d="M 55.566406 23.082031 C 66.410156 23.082031 75.421875 30.917969 77.265625 41.234375 L 33.867188 41.234375 C 35.707031 30.917969 44.722656 23.082031 55.566406 23.082031 Z M 55.566406 23.082031 "/>
</g>
</svg>
